<svg xmlns="http://www.w3.org/2000/svg" width="240" height="260" viewBox="0 0 240 260">
<rect width="240" height="260" rx="20" fill="#56B4E9"/>
<circle cx="68" cy="28" r="22" fill="#1A2340"/><circle cx="172" cy="28" r="22" fill="#1A2340"/>
<circle cx="68" cy="28" r="14" fill="#FCD34D"/><circle cx="172" cy="28" r="14" fill="#FCD34D"/>
<rect x="112" y="8" width="16" height="8" rx="4" fill="#F59E0B"/>
<circle cx="120" cy="138" r="105" fill="#1A2340"/>
<circle cx="120" cy="138" r="96" fill="#2A3D70"/>
<circle cx="120" cy="138" r="86" fill="#FFF9EF"/>
<circle cx="120" cy="138" r="86" fill="none" stroke="#C8A850" stroke-width="3"/>
<rect x="114" y="56" width="12" height="18" rx="6" fill="#1A2340" transform="rotate(0,120,138)"/>
<rect x="114" y="56" width="12" height="18" rx="6" fill="#1A2340" transform="rotate(90,120,138)"/>
<rect x="114" y="56" width="12" height="18" rx="6" fill="#1A2340" transform="rotate(180,120,138)"/>
<rect x="114" y="56" width="12" height="18" rx="6" fill="#1A2340" transform="rotate(270,120,138)"/>
<text x="120" y="82" text-anchor="middle" font-family="Arial Black,sans-serif" font-size="22" font-weight="900" fill="#1A2340">12</text>
<text x="182" y="145" text-anchor="middle" font-family="Arial Black,sans-serif" font-size="22" font-weight="900" fill="#1A2340">3</text>
<text x="120" y="210" text-anchor="middle" font-family="Arial Black,sans-serif" font-size="22" font-weight="900" fill="#1A2340">6</text>
<text x="58" y="145" text-anchor="middle" font-family="Arial Black,sans-serif" font-size="22" font-weight="900" fill="#1A2340">9</text>
<g transform="rotate(270,120,138)"><rect x="113" y="82" width="14" height="60" rx="7" fill="#1A2340"/></g>
<g transform="rotate(0,120,138)"><rect x="114" y="62" width="12" height="80" rx="6" fill="#E53935"/></g>
<circle cx="120" cy="138" r="10" fill="#1A2340"/><circle cx="120" cy="138" r="6" fill="#E53935"/>
<ellipse cx="94" cy="104" rx="28" ry="16" fill="rgba(255,255,255,.2)" transform="rotate(-25,94,104)"/>
<rect x="78" y="240" width="18" height="20" rx="9" fill="#1A2340"/>
<rect x="144" y="240" width="18" height="20" rx="9" fill="#1A2340"/>
</svg>