<svg width="400" height="400" viewBox="0 0 400 400" xmlns="http://www.w3.org/2000/svg">
<g transform="translate(200,200)">
  <circle cx="0" cy="0" r="120" fill="#1A2340"/>
  <circle cx="0" cy="0" r="112" fill="#2A3D70"/>
  <circle cx="0" cy="0" r="100" fill="#FFF9EF"/>
  <circle cx="0" cy="0" r="100" fill="none" stroke="#C8A850" stroke-width="3.6"/>
  <rect x="-7" y="-100" width="14" height="22" rx="7" fill="#1A2340"/>
  <rect x="78" y="-7" width="22" height="14" rx="7" fill="#1A2340"/>
  <rect x="-7" y="78" width="14" height="22" rx="7" fill="#1A2340"/>
  <rect x="-100" y="-7" width="22" height="14" rx="7" fill="#1A2340"/>
  <g fill="#B0B8C8">
    <rect transform="rotate(30)" x="-4" y="-102" width="8" height="16" rx="4"/>
    <rect transform="rotate(60)" x="-4" y="-102" width="8" height="16" rx="4"/>
    <rect transform="rotate(120)" x="-4" y="-102" width="8" height="16" rx="4"/>
    <rect transform="rotate(150)" x="-4" y="-102" width="8" height="16" rx="4"/>
    <rect transform="rotate(210)" x="-4" y="-102" width="8" height="16" rx="4"/>
    <rect transform="rotate(240)" x="-4" y="-102" width="8" height="16" rx="4"/>
    <rect transform="rotate(300)" x="-4" y="-102" width="8" height="16" rx="4"/>
    <rect transform="rotate(330)" x="-4" y="-102" width="8" height="16" rx="4"/>
  </g>
  <g transform="rotate(-60)"><rect x="-8" y="-64" width="16" height="72" rx="8" fill="#1A2340"/></g>
  <g transform="rotate(60)"><rect x="-6" y="-88" width="12" height="100" rx="6" fill="#E53935"/></g>
  <circle cx="0" cy="0" r="12" fill="#1A2340"/>
  <circle cx="0" cy="0" r="7" fill="#E53935"/>
  <ellipse cx="-32" cy="-44" rx="36" ry="22" fill="rgba(255,255,255,.25)" transform="rotate(-25,-32,-44)"/>
  <text x="0" y="-58" text-anchor="middle" font-family="Arial Black,sans-serif" font-size="28" font-weight="900" stroke="#FFF9EF" stroke-width="5" paint-order="stroke" fill="#1A2340">12</text>
  <text x="72" y="11" text-anchor="middle" font-family="Arial Black,sans-serif" font-size="28" font-weight="900" stroke="#FFF9EF" stroke-width="5" paint-order="stroke" fill="#1A2340">3</text>
  <text x="0" y="79" text-anchor="middle" font-family="Arial Black,sans-serif" font-size="28" font-weight="900" stroke="#FFF9EF" stroke-width="5" paint-order="stroke" fill="#1A2340">6</text>
  <text x="-72" y="11" text-anchor="middle" font-family="Arial Black,sans-serif" font-size="28" font-weight="900" stroke="#FFF9EF" stroke-width="5" paint-order="stroke" fill="#1A2340">9</text>
  <circle cx="-52" cy="-108" r="22" fill="#1A2340"/>
  <circle cx="52" cy="-108" r="22" fill="#1A2340"/>
  <circle cx="-52" cy="-108" r="14" fill="#FCD34D"/>
  <circle cx="52" cy="-108" r="14" fill="#FCD34D"/>
  <rect x="-8" y="-132" width="16" height="8" rx="4" fill="#F59E0B"/>
  <rect x="-48" y="104" width="20" height="26" rx="10" fill="#1A2340"/>
  <rect x="28" y="104" width="20" height="26" rx="10" fill="#1A2340"/>
</g>
</svg>